<?xml version="1.0" encoding="UTF-8"?>
<svg xmlns="http://www.w3.org/2000/svg" version="1.1" width="500" height="500" viewBox="0 0 500 500"><rect x="0" y="0" width="500" height="500" fill="#ffffff"/><g transform="scale(17.241)"><g transform="translate(0,0)"><g><g transform="translate(3.5,3.5)"><path fill-rule="evenodd" d="M-3.5 -3.5L-3.5 3.5L3.5 3.5L3.5 -3.5ZM-2.5 -2.5L-2.5 2.5L2.5 2.5L2.5 -2.5Z" fill="#000000"/><path fill-rule="evenodd" d="M-1.5 -1.5L-1.5 1.5L1.5 1.5L1.5 -1.5Z" fill="#000000"/></g></g><g><g transform="translate(25.5,3.5)"><g transform="rotate(90)"><path fill-rule="evenodd" d="M-3.5 -3.5L-3.5 3.5L3.5 3.5L3.5 -3.5ZM-2.5 -2.5L-2.5 2.5L2.5 2.5L2.5 -2.5Z" fill="#000000"/><path fill-rule="evenodd" d="M-1.5 -1.5L-1.5 1.5L1.5 1.5L1.5 -1.5Z" fill="#000000"/></g></g></g><g><g transform="translate(3.5,25.5)"><g transform="rotate(-90)"><path fill-rule="evenodd" d="M-3.5 -3.5L-3.5 3.5L3.5 3.5L3.5 -3.5ZM-2.5 -2.5L-2.5 2.5L2.5 2.5L2.5 -2.5Z" fill="#000000"/><path fill-rule="evenodd" d="M-1.5 -1.5L-1.5 1.5L1.5 1.5L1.5 -1.5Z" fill="#000000"/></g></g></g><path fill-rule="evenodd" d="M10 0L10 2L11 2L11 0ZM12 0L12 1L13 1L13 2L12 2L12 4L13 4L13 2L15 2L15 1L17 1L17 2L16 2L16 3L14 3L14 5L11 5L11 6L10 6L10 4L11 4L11 3L8 3L8 4L9 4L9 5L8 5L8 7L9 7L9 8L6 8L6 9L5 9L5 8L0 8L0 9L5 9L5 10L2 10L2 11L1 11L1 10L0 10L0 11L1 11L1 12L0 12L0 14L1 14L1 15L0 15L0 16L1 16L1 17L0 17L0 21L1 21L1 18L2 18L2 19L3 19L3 20L2 20L2 21L3 21L3 20L5 20L5 21L8 21L8 23L9 23L9 22L11 22L11 25L12 25L12 26L13 26L13 27L12 27L12 29L13 29L13 28L14 28L14 29L17 29L17 28L18 28L18 29L19 29L19 27L20 27L20 28L21 28L21 27L20 27L20 26L22 26L22 25L23 25L23 27L24 27L24 25L25 25L25 23L26 23L26 25L29 25L29 23L27 23L27 22L28 22L28 20L29 20L29 19L27 19L27 18L29 18L29 17L27 17L27 18L26 18L26 17L25 17L25 15L27 15L27 16L29 16L29 14L28 14L28 13L27 13L27 14L26 14L26 13L25 13L25 12L26 12L26 11L27 11L27 10L28 10L28 8L27 8L27 10L26 10L26 8L25 8L25 9L24 9L24 8L23 8L23 9L22 9L22 8L20 8L20 7L21 7L21 6L20 6L20 5L21 5L21 4L19 4L19 3L21 3L21 2L18 2L18 1L17 1L17 0L14 0L14 1L13 1L13 0ZM19 0L19 1L21 1L21 0ZM8 1L8 2L9 2L9 1ZM17 3L17 5L16 5L16 6L15 6L15 8L16 8L16 6L17 6L17 10L16 10L16 11L15 11L15 10L14 10L14 9L13 9L13 8L14 8L14 6L13 6L13 7L12 7L12 6L11 6L11 7L12 7L12 9L11 9L11 8L10 8L10 9L9 9L9 11L6 11L6 10L8 10L8 9L6 9L6 10L5 10L5 11L2 11L2 12L1 12L1 13L3 13L3 12L5 12L5 11L6 11L6 12L7 12L7 13L6 13L6 14L7 14L7 13L8 13L8 14L9 14L9 12L11 12L11 13L10 13L10 14L13 14L13 15L12 15L12 17L10 17L10 18L11 18L11 19L9 19L9 18L8 18L8 17L9 17L9 16L11 16L11 15L6 15L6 16L8 16L8 17L4 17L4 16L3 16L3 15L5 15L5 13L4 13L4 14L3 14L3 15L2 15L2 17L3 17L3 19L4 19L4 18L8 18L8 19L6 19L6 20L10 20L10 21L11 21L11 22L13 22L13 23L12 23L12 25L15 25L15 27L14 27L14 28L16 28L16 27L17 27L17 26L18 26L18 27L19 27L19 26L18 26L18 25L20 25L20 23L19 23L19 24L18 24L18 25L17 25L17 26L16 26L16 25L15 25L15 24L17 24L17 22L18 22L18 21L17 21L17 22L16 22L16 21L14 21L14 20L15 20L15 19L14 19L14 20L13 20L13 21L12 21L12 19L13 19L13 18L12 18L12 17L14 17L14 18L15 18L15 16L16 16L16 17L17 17L17 18L18 18L18 19L17 19L17 20L18 20L18 19L19 19L19 18L20 18L20 19L25 19L25 20L27 20L27 19L25 19L25 18L22 18L22 17L24 17L24 16L22 16L22 17L20 17L20 16L19 16L19 14L18 14L18 12L16 12L16 11L17 11L17 10L18 10L18 11L19 11L19 10L18 10L18 9L20 9L20 8L19 8L19 7L20 7L20 6L19 6L19 4L18 4L18 3ZM17 5L17 6L18 6L18 7L19 7L19 6L18 6L18 5ZM9 6L9 7L10 7L10 6ZM10 9L10 11L11 11L11 9ZM12 9L12 10L13 10L13 11L12 11L12 13L14 13L14 14L15 14L15 15L16 15L16 16L17 16L17 15L18 15L18 14L15 14L15 13L16 13L16 12L14 12L14 10L13 10L13 9ZM20 10L20 11L23 11L23 10ZM24 10L24 11L25 11L25 10ZM28 11L28 12L29 12L29 11ZM19 12L19 13L20 13L20 15L25 15L25 14L24 14L24 13L23 13L23 12ZM19 20L19 22L20 22L20 20ZM21 21L21 24L24 24L24 21ZM25 21L25 22L27 22L27 21ZM22 22L22 23L23 23L23 22ZM14 23L14 24L15 24L15 23ZM8 24L8 29L10 29L10 28L11 28L11 26L10 26L10 24ZM9 26L9 28L10 28L10 26ZM26 26L26 27L25 27L25 28L24 28L24 29L27 29L27 27L28 27L28 28L29 28L29 27L28 27L28 26ZM22 28L22 29L23 29L23 28Z" fill="#000000"/></g></g></svg>
